<svg xmlns="http://www.w3.org/2000/svg" width="1920" height="1080" viewBox="0 0 1920 1080">
<defs>
  <radialGradient id="bg" cx="50%" cy="43%" r="72%">
    <stop offset="0" stop-color="#0b1b3a"/>
    <stop offset="0.48" stop-color="#061329"/>
    <stop offset="1" stop-color="#020814"/>
  </radialGradient>
  <linearGradient id="line" x1="0" x2="1">
    <stop offset="0" stop-color="#163a68" stop-opacity=".08"/>
    <stop offset=".5" stop-color="#2d8cff" stop-opacity=".42"/>
    <stop offset="1" stop-color="#163a68" stop-opacity=".08"/>
  </linearGradient>
  <filter id="glow">
    <feGaussianBlur stdDeviation="3.2" result="b"/>
    <feMerge><feMergeNode in="b"/><feMergeNode in="SourceGraphic"/></feMerge>
  </filter>
</defs>
<rect width="1920" height="1080" fill="url(#bg)"/>
<g fill="none" stroke="#1f70c8" stroke-opacity=".17">
  <ellipse cx="960" cy="540" rx="690" ry="390"/>
  <ellipse cx="960" cy="540" rx="610" ry="335" stroke-dasharray="3 12"/>
  <ellipse cx="960" cy="540" rx="520" ry="285" stroke-dasharray="2 15"/>
</g>
<g fill="none" stroke="url(#line)" stroke-width="1.4">
  <path d="M110 540 H430 L510 470 H720"/>
  <path d="M110 425 H390 L485 350 H710"/>
  <path d="M110 655 H390 L485 730 H710"/>
  <path d="M1810 540 H1490 L1410 470 H1200"/>
  <path d="M1810 425 H1530 L1435 350 H1210"/>
  <path d="M1810 655 H1530 L1435 730 H1210"/>
  <path d="M960 90 V245"/>
  <path d="M960 835 V995"/>
</g>
<g fill="#4aa7ff" filter="url(#glow)">
  <circle cx="430" cy="540" r="3"/><circle cx="510" cy="470" r="2.4"/>
  <circle cx="390" cy="425" r="2.5"/><circle cx="485" cy="350" r="2.2"/>
  <circle cx="390" cy="655" r="2.5"/><circle cx="485" cy="730" r="2.2"/>
  <circle cx="1490" cy="540" r="3"/><circle cx="1410" cy="470" r="2.4"/>
  <circle cx="1530" cy="425" r="2.5"/><circle cx="1435" cy="350" r="2.2"/>
  <circle cx="1530" cy="655" r="2.5"/><circle cx="1435" cy="730" r="2.2"/>
  <circle cx="960" cy="245" r="2.6"/><circle cx="960" cy="835" r="2.6"/>
</g>
</svg>